# xmcd
#
# Track frame offsets:
#	150
#	15362
#	23385
#	40655
#	50012
#	61245
#	79275
#	91480
#	104330
#	119507
#	127750
#	138962
#
# Disc length: 2022 seconds
#
# Revision: 0
# Processed by: cddbd v1.5.2PL0 Copyright (c) Steve Scherf et al.
# Submitted via: EasyCDDAExtractor 16.0.6.1
#
DISCID=8e07e40c
DTITLE=Χορ. Κορίνθου υπό Αλ. Παπαγιαννόπουλου - Ύμνοι Χριστουγέννων-1971, Univ
DTITLE=ersal
DYEAR=2007
DGENRE=Χριστουγεννιάτικη
TTITLE0=Άγια Νύχτα [Silent Night]
TTITLE1=Καλήν ημέραν άρχοντες [κάλαντα Χριστουγέννων]
TTITLE2=Τι γλυκές φωνές που ακούω
TTITLE3=Ω! Έλατο [O Tannenbaum, γερμανικά κάλαντα]
TTITLE4=Ω! Πανάμωμε [γερμανικός ύμνος Χριστουγέννων]
TTITLE5=Τόσον ηγάπησεν ο Θεός τον κόσμον
TTITLE6=Ω! Αγία πόλη Βηθλεέμ
TTITLE7=Ο μικρός τυμπανιστής
TTITLE8=Ορατόριο Χριστουγέννων [Δοξάστε του Χριστού την Γέννηση]
TTITLE9=Χριστούγεννα (Δόξα στον Λυτρωτή) [γερμανικά κάλαντα]
TTITLE10=Τα σύμπαντα γιορτάζουνε
TTITLE11=Ελάτε πιστοί [Adeste fideles]
EXTD=
EXTT0=
EXTT1=
EXTT2=
EXTT3=
EXTT4=
EXTT5=
EXTT6=
EXTT7=
EXTT8=
EXTT9=
EXTT10=
EXTT11=
PLAYORDER=
